<svg width="128" height="128" viewBox="0 0 128 128" fill="none" xmlns="http://www.w3.org/2000/svg">
<path opacity="0.15" d="M8.43604 110.406C8.43604 111.467 13.0717 112.485 21.3233 113.235C29.5749 113.985 40.7665 114.406 52.436 114.406C64.1056 114.406 75.2971 113.985 83.5487 113.235C91.8003 112.485 96.436 111.467 96.436 110.406C96.436 109.345 91.8003 108.328 83.5487 107.578C75.2971 106.828 64.1056 106.406 52.436 106.406C40.7665 106.406 29.5749 106.828 21.3233 107.578C13.0717 108.328 8.43604 109.345 8.43604 110.406Z" fill="#260F08"/>
<path d="M119.983 24.2197L72.8359 29.9797L77.1559 65.3397L121.929 59.8731C122.242 59.8368 122.544 59.7388 122.819 59.5847C123.093 59.4305 123.334 59.2233 123.528 58.9752C123.721 58.727 123.863 58.4428 123.946 58.1392C124.029 57.8355 124.05 57.5184 124.009 57.2064L119.983 24.2197Z" fill="#87635A"/>
<path d="M74.5615 44.1424L121.708 38.3877L123.143 50.1664L76.0015 55.9237L74.5615 44.1424Z" fill="#AD8A85"/>
<path d="M85.6359 36.7797C85.5496 36.1561 85.2217 35.5913 84.7228 35.2073C84.224 34.8232 83.5942 34.6504 82.9693 34.7263C82.659 34.7658 82.3596 34.8662 82.0883 35.0217C81.8169 35.1773 81.579 35.385 81.3882 35.6328C81.1974 35.8806 81.0574 36.1637 80.9764 36.4658C80.8953 36.7678 80.8748 37.083 80.9159 37.393L81.2093 39.7397C81.2447 40.6346 80.9427 41.5101 80.3633 42.193C79.7838 42.8758 78.969 43.3162 78.0803 43.4268C77.1916 43.5375 76.2937 43.3104 75.5645 42.7905C74.8352 42.2707 74.3278 41.4959 74.1426 40.6197L72.8359 29.953L87.3159 13.073C106.569 12.3797 121.449 16.673 122.329 23.873L123.609 34.4063C123.632 34.5856 123.612 34.7677 123.553 34.9383C123.493 35.1089 123.395 35.2635 123.266 35.3899C123.137 35.5164 122.981 35.6114 122.809 35.6674C122.637 35.7234 122.455 35.739 122.276 35.713C121.292 35.526 120.394 35.0291 119.712 34.295C119.031 33.5609 118.603 32.6281 118.489 31.633C118.451 31.3231 118.352 31.0238 118.197 30.7522C118.043 30.4806 117.837 30.2421 117.591 30.0502C117.344 29.8582 117.062 29.7168 116.761 29.6337C116.46 29.5507 116.146 29.5278 115.836 29.5663C115.21 29.6441 114.641 29.9674 114.253 30.465C114.061 30.7114 113.92 30.9931 113.837 31.2942C113.754 31.5953 113.731 31.9098 113.769 32.2197L114.063 34.5663C114.101 34.8763 114.078 35.1907 113.995 35.4918C113.912 35.7929 113.771 36.0746 113.579 36.321C113.387 36.5674 113.148 36.7736 112.877 36.9278C112.605 37.082 112.306 37.1812 111.996 37.2197C111.686 37.2582 111.372 37.2353 111.07 37.1523C110.769 37.0693 110.488 36.9278 110.241 36.7359C109.995 36.544 109.789 36.3054 109.635 36.0338C109.48 35.7622 109.381 35.4629 109.343 35.153C109.306 34.8431 109.208 34.5435 109.056 34.2712C108.903 33.9989 108.699 33.7594 108.453 33.5663C108.208 33.3731 107.927 33.2301 107.627 33.1455C107.327 33.0609 107.013 33.0362 106.703 33.073C106.393 33.1098 106.093 33.2072 105.821 33.3598C105.549 33.5124 105.309 33.7171 105.116 33.9622C104.726 34.4573 104.548 35.0871 104.623 35.713L104.916 38.0863C105.068 39.3382 104.717 40.5991 103.939 41.5918C103.161 42.5845 102.021 43.2276 100.769 43.3797C99.5174 43.5317 98.2565 43.1803 97.2638 42.4026C96.2711 41.625 95.628 40.4848 95.4759 39.233L95.0493 35.6863C95.0133 35.3746 94.9151 35.0733 94.7606 34.8002C94.6061 34.5271 94.3984 34.2877 94.1498 34.0962C93.9012 33.9048 93.6167 33.7652 93.3131 33.6856C93.0096 33.606 92.6932 33.5882 92.3826 33.633C91.7541 33.713 91.1828 34.0382 90.7931 34.5377C90.4035 35.0373 90.2271 35.6706 90.3026 36.2997L90.4626 37.473C90.5404 38.0989 90.3664 38.7301 89.9788 39.2277C89.5912 39.7253 89.0219 40.0486 88.3959 40.1263C87.77 40.2041 87.1388 40.0301 86.6412 39.6425C86.1437 39.255 85.8204 38.6856 85.7426 38.0597L85.6359 36.7797Z" fill="#CAAFA7"/>
<path d="M81.0762 28.9662L115.263 24.8062" stroke="white" stroke-width="0.973958" stroke-linecap="round" stroke-linejoin="round"/>
<path d="M7.44918 51.793C6.48918 60.273 24.1958 69.233 46.9158 71.7396C69.6358 74.2463 88.9958 69.5796 89.9558 61.073L86.0092 96.5663C85.0492 105.046 65.7692 109.9 42.9692 107.233C20.1692 104.566 2.46252 95.7396 3.42252 87.1796L7.44918 51.793Z" fill="#87635A"/>
<path d="M5.82274 65.9531C4.86274 74.4065 22.5694 83.3931 45.3961 85.9798C68.2227 88.5665 87.4494 83.7931 88.4094 75.3131L87.0761 87.0998C86.1161 95.5798 66.8361 100.433 44.0361 97.7665C21.2361 95.0998 3.52941 86.2198 4.48941 77.7398L5.82274 65.9531Z" fill="#AD8A85"/>
<path d="M60.8359 42.7795C57.5292 42.1128 54.0626 41.5528 50.4892 41.1528C26.4892 38.4861 6.0359 43.0461 5.1559 51.5261L3.02257 70.4061C2.97004 70.8701 3.00942 71.3399 3.13846 71.7887C3.26749 72.2375 3.48366 72.6565 3.77462 73.0217C4.36223 73.7594 5.2188 74.2334 6.1559 74.3395C7.093 74.4455 8.03386 74.175 8.7715 73.5874C9.50915 72.9998 9.98315 72.1432 10.0892 71.2061C10.1201 70.7233 10.2488 70.2518 10.4673 69.8202C10.6859 69.3885 10.9898 69.0058 11.3607 68.6951C11.7316 68.3844 12.1617 68.1523 12.625 68.0128C13.0882 67.8733 13.575 67.8293 14.0557 67.8836C14.5365 67.9378 15.0012 68.0891 15.4218 68.3283C15.8423 68.5674 16.21 68.8895 16.5023 69.275C16.7947 69.6605 17.0057 70.1013 17.1227 70.5708C17.2396 71.0402 17.26 71.5285 17.1826 72.0061L16.3826 79.0994C16.2058 80.6625 16.6571 82.2317 17.6373 83.4619C18.6175 84.6922 20.0462 85.4826 21.6092 85.6595C23.1722 85.8363 24.7415 85.3849 25.9717 84.4047C27.202 83.4245 27.9924 81.9958 28.1692 80.4328C28.2753 79.4957 28.7493 78.6391 29.487 78.0515C30.2246 77.4639 31.1655 77.1934 32.1026 77.2994C33.0397 77.4055 33.8962 77.8795 34.4839 78.6172C35.0715 79.3548 35.342 80.2957 35.2359 81.2328L34.9692 83.5794C34.8978 84.5005 35.1858 85.4134 35.773 86.1267C36.3601 86.84 37.2006 87.2982 38.1182 87.4051C39.0358 87.512 39.9592 87.2594 40.6946 86.7003C41.43 86.1412 41.9203 85.3189 42.0626 84.4061L42.1959 83.2061C42.3762 81.6431 43.1701 80.2158 44.4029 79.2381C45.6356 78.2604 47.2062 77.8124 48.7692 77.9928C50.3322 78.1731 51.7596 78.967 52.7373 80.1997C53.715 81.4325 54.1629 83.0031 53.9826 84.5661L53.5826 88.0861C53.5111 89.0072 53.7992 89.9201 54.3863 90.6334C54.9734 91.3467 55.8139 91.8048 56.7316 91.9118C57.6492 92.0187 58.5725 91.7661 59.3079 91.207C60.0434 90.6478 60.5336 89.8256 60.6759 88.9128L61.6092 80.6461C61.6734 80.3585 61.8434 80.1056 62.0855 79.9376C62.3276 79.7696 62.624 79.6989 62.9159 79.7395C63.0718 79.7524 63.2234 79.7971 63.3614 79.8708C63.4993 79.9445 63.6208 80.0457 63.7182 80.1681C63.8156 80.2905 63.887 80.4315 63.9278 80.5825C63.9687 80.7335 63.9783 80.8913 63.9559 81.0461C63.827 82.5881 64.3042 84.1195 65.2861 85.3153C66.268 86.5112 67.6774 87.2772 69.2149 87.4507C70.7525 87.6243 72.2971 87.1917 73.5209 86.2448C74.7447 85.2979 75.5512 83.9113 75.7692 82.3795L76.3026 77.6595C76.4087 76.7224 76.8827 75.8658 77.6203 75.2782C78.3579 74.6906 79.2988 74.42 80.2359 74.5261C81.173 74.6322 82.0296 75.1062 82.6172 75.8439C83.2048 76.5815 83.4753 77.5224 83.3692 78.4595C83.2978 79.3805 83.5858 80.2935 84.173 81.0067C84.7601 81.72 85.6006 82.1782 86.5182 82.2851C87.4358 82.392 88.3592 82.1395 89.0946 81.5803C89.83 81.0212 90.3203 80.1989 90.4626 79.2861L92.2492 63.7395C92.2902 63.4274 92.2687 63.1103 92.186 62.8067C92.1033 62.503 91.9611 62.2188 91.7675 61.9707C91.5739 61.7225 91.3329 61.5153 91.0586 61.3612C90.7842 61.207 90.4819 61.109 90.1692 61.0728L44.1426 55.7395L60.8359 42.7795Z" fill="#CAAFA7"/>
<path d="M59.1559 57.6598L60.8359 42.7798L44.0093 55.9531L59.1559 57.6598Z" fill="#87635A"/>
<path d="M9.79591 52.0596C9.12925 57.9262 26.0359 64.6462 47.5292 67.0996C62.3026 68.7796 75.3959 68.0062 82.3826 65.4462" stroke="white" stroke-width="0.973958" stroke-linecap="round" stroke-linejoin="round"/>
</svg>
